<svg width="252" height="122" viewBox="0 0 252 122" fill="none" xmlns="http://www.w3.org/2000/svg">
<path d="M108.2 78L122.6 43H126.6L140.9 78H134.7L123.5 49.65H125.6L114.3 78H108.2ZM115.3 71.25V66.25H133.85V71.25H115.3ZM154.891 78.5C152.491 78.5 150.325 77.9667 148.391 76.9C146.491 75.8 144.975 74.3 143.841 72.4C142.741 70.5 142.191 68.3667 142.191 66C142.191 63.6333 142.741 61.5167 143.841 59.65C144.941 57.75 146.425 56.25 148.291 55.15C150.191 54.05 152.291 53.5 154.591 53.5C156.825 53.5 158.791 54.0167 160.491 55.05C162.225 56.0833 163.575 57.5 164.541 59.3C165.541 61.1 166.041 63.15 166.041 65.45C166.041 65.85 166.008 66.2667 165.941 66.7C165.908 67.1 165.841 67.55 165.741 68.05H146.041V63.55H162.891L160.841 65.35C160.775 63.8833 160.491 62.65 159.991 61.65C159.491 60.65 158.775 59.8833 157.841 59.35C156.941 58.8167 155.825 58.55 154.491 58.55C153.091 58.55 151.875 58.85 150.841 59.45C149.808 60.05 149.008 60.9 148.441 62C147.875 63.0667 147.591 64.35 147.591 65.85C147.591 67.35 147.891 68.6667 148.491 69.8C149.091 70.9333 149.941 71.8167 151.041 72.45C152.141 73.05 153.408 73.35 154.841 73.35C156.075 73.35 157.208 73.1333 158.241 72.7C159.308 72.2667 160.208 71.6333 160.941 70.8L164.441 74.35C163.275 75.7167 161.858 76.75 160.191 77.45C158.525 78.15 156.758 78.5 154.891 78.5ZM181.45 78.5C179.117 78.5 177 77.95 175.1 76.85C173.2 75.7167 171.684 74.2 170.55 72.3C169.45 70.4 168.9 68.2833 168.9 65.95C168.9 63.6167 169.45 61.5167 170.55 59.65C171.684 57.7833 173.2 56.3 175.1 55.2C177 54.0667 179.117 53.5 181.45 53.5C183.817 53.5 185.95 54.05 187.85 55.15C189.75 56.25 191.25 57.75 192.35 59.65C193.484 61.5167 194.05 63.6167 194.05 65.95C194.05 68.2833 193.484 70.4 192.35 72.3C191.25 74.2 189.75 75.7167 187.85 76.85C185.95 77.95 183.817 78.5 181.45 78.5ZM181.45 73.2C182.817 73.2 184.017 72.9 185.05 72.3C186.117 71.6667 186.934 70.8 187.5 69.7C188.1 68.6 188.4 67.35 188.4 65.95C188.4 64.55 188.1 63.3167 187.5 62.25C186.9 61.1833 186.084 60.35 185.05 59.75C184.017 59.1167 182.817 58.8 181.45 58.8C180.117 58.8 178.917 59.1167 177.85 59.75C176.817 60.35 176 61.1833 175.4 62.25C174.834 63.3167 174.55 64.55 174.55 65.95C174.55 67.35 174.834 68.6 175.4 69.7C176 70.8 176.817 71.6667 177.85 72.3C178.917 72.9 180.117 73.2 181.45 73.2ZM198.674 78V54H204.174V78H198.674ZM201.424 49.6C200.491 49.6 199.708 49.2833 199.074 48.65C198.474 48.0167 198.174 47.2333 198.174 46.3C198.174 45.3667 198.474 44.5833 199.074 43.95C199.708 43.3167 200.491 43 201.424 43C202.391 43 203.174 43.3167 203.774 43.95C204.374 44.5833 204.674 45.3667 204.674 46.3C204.674 47.2333 204.374 48.0167 203.774 48.65C203.174 49.2833 202.391 49.6 201.424 49.6ZM225.543 78L218.643 67.85L217.643 66.95L208.343 54H214.993L221.143 62.9L222.093 63.75L232.143 78H225.543ZM207.893 78L217.593 64.55L220.793 68.5L214.293 78H207.893ZM222.593 66.85L219.343 62.95L225.343 54H231.693L222.593 66.85Z" fill="black"/>
<path d="M64.1433 59.1646C64.2038 59.1578 64.2654 59.1568 64.3262 59.1607C65.3742 59.2284 65.4817 59.1152 66.0014 59.4179C66.2939 59.5882 66.4478 59.9208 66.4258 60.2585C66.4159 60.4098 66.3853 60.5364 66.2984 60.6606C63.1296 65.1904 30.5778 91.3695 25.7926 93.826C24.8019 94.075 24.7908 94.1985 24.278 94.0778C23.9638 94.0038 23.7184 93.7604 23.6118 93.4558L23.581 93.3677C23.5297 93.2212 23.5119 93.0648 23.538 92.9119C23.6782 92.0916 24.0303 91.0295 24.4768 90.3934C29.9827 82.5648 34.1802 73.9784 39.2055 65.8785C39.8182 64.891 42.0798 63.0916 43.1869 62.7815C49.7596 60.9424 57.3262 59.9285 64.1433 59.1646Z" fill="black"/>
<path d="M23.0133 32.2452C23.0058 32.1186 23.0908 32.014 23.2143 32.0429C28.278 33.2267 64.7541 51.544 67.6556 54.36C67.7751 54.476 67.7459 54.6482 67.6255 54.7632C66.8756 55.4794 66.7153 55.3345 65.4556 55.6688C65.4438 55.6719 65.4335 55.674 65.4213 55.6749C61.6067 55.9746 40.2578 58.8984 38.3285 56.657C33.32 50.8383 27.7362 42.1158 23.6375 35.3467C23.2133 34.6464 23.0699 33.2043 23.0133 32.2452Z" fill="black"/>
<path d="M77.9177 59.65C80.4443 59.75 90.0231 86.131 89.4288 88.5484C89.4056 88.6428 89.3241 88.685 89.2274 88.6935C86.6205 88.9208 77.2371 85.044 74.6168 83.9857C70.7957 82.291 59.6116 78.5281 57.3517 76.5601L57.335 75.8383C58.7622 73.3332 74.4621 62.0779 77.9177 59.65Z" fill="black"/>
<path d="M87.3114 33.8894C87.3344 33.8819 87.3557 33.8796 87.3798 33.8808L87.9425 33.9075C88.1974 33.9196 88.4729 34.0059 88.5325 34.2541C89.1563 36.8517 78.2318 49.0396 75.8807 51.7179C75.7432 51.8745 75.5259 51.929 75.3325 51.8515C73.0252 50.9278 70.2693 49.1413 68.1406 47.8657C66.306 46.8897 62.997 45.3047 61.5977 43.955L61.5922 43.4176C64.0811 40.8644 82.749 35.3677 87.3114 33.8894Z" fill="black"/>
</svg>
