<svg width="126" height="122" viewBox="0 0 126 122" fill="none" xmlns="http://www.w3.org/2000/svg">
<path d="M71.1433 57.1646C71.2038 57.1578 71.2654 57.1568 71.3262 57.1607C72.3742 57.2284 72.4817 57.1152 73.0014 57.4179C73.2939 57.5882 73.4478 57.9208 73.4258 58.2585C73.4159 58.4098 73.3853 58.5364 73.2984 58.6606C70.1296 63.1904 37.5778 89.3695 32.7926 91.826C31.8019 92.075 31.7908 92.1985 31.278 92.0778C30.9638 92.0038 30.7184 91.7604 30.6118 91.4558L30.581 91.3677C30.5297 91.2212 30.5119 91.0648 30.538 90.9119C30.6782 90.0916 31.0303 89.0295 31.4768 88.3934C36.9827 80.5648 41.1802 71.9784 46.2055 63.8785C46.8182 62.891 49.0798 61.0916 50.1869 60.7815C56.7596 58.9424 64.3262 57.9285 71.1433 57.1646Z" fill="white"/>
<path d="M30.0133 30.2452C30.0058 30.1186 30.0908 30.014 30.2143 30.0429C35.278 31.2267 71.7541 49.544 74.6556 52.36C74.7751 52.476 74.7459 52.6482 74.6255 52.7632C73.8756 53.4794 73.7153 53.3345 72.4556 53.6688C72.4438 53.6719 72.4335 53.674 72.4213 53.6749C68.6067 53.9746 47.2578 56.8984 45.3285 54.657C40.32 48.8383 34.7362 40.1158 30.6375 33.3467C30.2133 32.6464 30.0699 31.2043 30.0133 30.2452Z" fill="white"/>
<path d="M84.9177 57.65C87.4443 57.75 97.0231 84.131 96.4288 86.5484C96.4056 86.6428 96.3241 86.685 96.2274 86.6935C93.6205 86.9208 84.2371 83.044 81.6168 81.9857C77.7957 80.291 66.6116 76.5281 64.3517 74.5601L64.335 73.8383C65.7622 71.3332 81.4621 60.0779 84.9177 57.65Z" fill="white"/>
<path d="M94.3114 31.8894C94.3344 31.8819 94.3557 31.8796 94.3798 31.8808L94.9425 31.9075C95.1974 31.9196 95.4729 32.0059 95.5325 32.2541C96.1563 34.8517 85.2318 47.0396 82.8807 49.7179C82.7432 49.8745 82.5259 49.929 82.3325 49.8515C80.0252 48.9278 77.2693 47.1413 75.1406 45.8657C73.306 44.8897 69.997 43.3047 68.5977 41.955L68.5922 41.4176C71.0811 38.8644 89.749 33.3677 94.3114 31.8894Z" fill="white"/>
</svg>
