<?xml version="1.0" encoding="UTF-8"?>
<svg version="1.1" xmlns="http://www.w3.org/2000/svg" width="640" height="640">
<path d="M0 0 C0.7738504 0.00215515 1.54770081 0.0043103 2.34500122 0.00653076 C13.7307185 0.05742355 24.75390039 0.39919905 35.8125 3.3125 C36.60575684 3.51649414 37.39901367 3.72048828 38.21630859 3.93066406 C49.88241813 7.00552201 60.96925228 11.03041943 71.8125 16.3125 C72.93011719 16.85648438 74.04773438 17.40046875 75.19921875 17.9609375 C81.01439879 20.94919648 86.47702962 24.29874702 91.8125 28.0625 C92.39805664 28.47363037 92.98361328 28.88476074 93.58691406 29.30834961 C96.64961342 31.52571343 99.39205168 33.8202337 102.0234375 36.5390625 C105.13154727 39.68990698 107.89694372 42.18084768 111.8125 44.3125 C116.81887186 44.18454161 120.94397787 42.69734147 125.62304688 41.02441406 C160.60312982 29.65042634 202.75124203 38.57834787 234.8125 54.3125 C235.79089844 54.78171875 236.76929688 55.2509375 237.77734375 55.734375 C251.93307247 62.97189044 264.65441009 73.06231625 275.8125 84.3125 C276.29412598 84.79686523 276.77575195 85.28123047 277.27197266 85.78027344 C305.87280636 114.9163388 321.19009497 154.43588715 321.1875 195.125 C321.19393524 195.78870605 321.20037048 196.45241211 321.20700073 197.13623047 C321.27867548 205.58704896 320.55897939 213.37936459 318.61206055 221.64379883 C316.2996787 230.20363537 316.2996787 230.20363537 317.91796875 238.59082031 C321.25911804 242.96937583 325.48293821 246.23673138 329.79882812 249.60742188 C332.93435053 252.26242775 335.26697584 255.34340884 337.625 258.6875 C338.28121338 259.61344971 338.28121338 259.61344971 338.95068359 260.55810547 C351.44041031 278.59052749 360.59518886 297.97309076 365.8125 319.3125 C366.29203125 321.20935547 366.29203125 321.20935547 366.78125 323.14453125 C374.84851301 359.47407583 367.45058921 399.06759981 349.8125 431.3125 C349.17920907 432.51407088 348.54639027 433.71589073 347.9140625 434.91796875 C339.18377614 451.17459596 326.3294347 466.87491509 311.8125 478.3125 C311.31331055 478.70759766 310.81412109 479.10269531 310.29980469 479.50976562 C295.50725191 491.09998399 279.92215151 499.34749535 262.26171875 505.71875 C261.47990234 506.00830566 260.69808594 506.29786133 259.89257812 506.59619141 C257.8125 507.3125 257.8125 507.3125 254.88671875 507.9296875 C251.1859618 510.3968588 250.91477787 514.79004574 249.9375 518.9375 C247.42109911 528.58452416 244.19027251 537.37036904 239.8125 546.3125 C239.51649902 546.93286133 239.22049805 547.55322266 238.91552734 548.19238281 C231.86830066 562.83508071 222.02552535 575.59799767 210.8125 587.3125 C209.71615234 588.50359375 209.71615234 588.50359375 208.59765625 589.71875 C180.99634011 618.74376132 140.47265943 634.16448682 100.9296875 635.4375 C66.5663298 636.12018912 33.14783248 626.01237113 4.9375 606.375 C3.85891724 605.62645752 3.85891724 605.62645752 2.75854492 604.86279297 C-0.5091416 602.51817959 -3.40413766 600.23578779 -5.99609375 597.1484375 C-8.65610053 594.06930329 -10.49867619 592.06008028 -14.1875 590.3125 C-19.29289373 590.40040593 -24.03969188 592.04356933 -28.83203125 593.671875 C-40.23748452 597.43931173 -52.21531408 597.72344787 -64.125 597.6875 C-64.84127563 597.68662384 -65.55755127 597.68574768 -66.29553223 597.68484497 C-93.02137744 597.57777858 -117.76281365 591.23894748 -141.1875 578.3125 C-142.25355469 577.73628906 -143.31960937 577.16007813 -144.41796875 576.56640625 C-155.76876387 570.20819889 -165.75911692 562.23764129 -175.1875 553.3125 C-176.49654297 552.10013672 -176.49654297 552.10013672 -177.83203125 550.86328125 C-205.70238308 524.18908186 -222.11125642 485.50458112 -223.50390625 447.109375 C-223.79742302 433.19945898 -223.35730965 419.82952657 -219.90795898 406.24169922 C-219.29179113 403.42321734 -218.87347268 401.1826044 -219.1875 398.3125 C-221.39728952 395.32735848 -224.19025425 393.45700073 -227.1875 391.3125 C-229.27627837 389.2550095 -231.16950422 387.05015247 -233.0625 384.8125 C-233.57079346 384.21284424 -234.07908691 383.61318848 -234.6027832 382.99536133 C-258.11909082 354.71783591 -271.33446809 319.44001181 -271.42773438 282.68920898 C-271.43734572 280.41156128 -271.46839299 278.13485513 -271.5 275.85742188 C-271.57564354 265.37021912 -270.37610388 255.56142318 -268.1875 245.3125 C-267.99929688 244.42763916 -267.81109375 243.54277832 -267.6171875 242.63110352 C-258.73958795 203.96066135 -233.72568876 167.67550993 -200.1875 146.3125 C-192.41427412 141.45764313 -184.36724635 137.23487475 -176 133.5 C-175.34032227 133.20222656 -174.68064453 132.90445313 -174.00097656 132.59765625 C-169.68270059 130.73075658 -165.65447373 129.86445324 -161 129.0625 C-157.75946747 128.31130674 -157.75946747 128.31130674 -155.1875 126.3125 C-152.94597769 122.06953231 -152.26271114 117.26568975 -151.33984375 112.6015625 C-144.40985616 77.94526091 -116.52203715 45.74971872 -88.1875 26.3125 C-70.48256281 14.75009204 -51.02479292 6.25367549 -30.1875 2.3125 C-29.27830811 2.13662354 -28.36911621 1.96074707 -27.43237305 1.77954102 C-18.25866748 0.17508781 -9.28120802 -0.04651486 0 0 Z M-35.1875 43.3125 C-35.92597168 43.52680664 -36.66444336 43.74111328 -37.42529297 43.96191406 C-52.98423352 48.64904064 -66.61751241 55.99729832 -79.1875 66.3125 C-80.03828125 67.00988281 -80.8890625 67.70726563 -81.765625 68.42578125 C-92.96293775 78.05617445 -101.57864269 89.12995759 -108.1875 102.3125 C-108.6513208 103.22225586 -108.6513208 103.22225586 -109.12451172 104.15039062 C-118.66257621 123.19660409 -121.33309882 143.13903543 -121.34863281 164.21386719 C-121.35327084 165.69327414 -121.35829679 167.17267992 -121.36367798 168.65208435 C-121.37669784 172.64143683 -121.38322483 176.63077257 -121.38768864 180.62014294 C-121.39063259 183.11580564 -121.39473951 185.61146389 -121.39919281 188.10712433 C-121.41283204 195.92606067 -121.42251959 203.74498668 -121.4263947 211.56393409 C-121.43088534 220.57264032 -121.44849464 229.58119558 -121.4773953 238.58985591 C-121.49900891 245.57013913 -121.50909859 252.55037982 -121.51043582 259.53069615 C-121.51148285 263.69358608 -121.51737057 267.85633338 -121.53525543 272.01918793 C-121.55173359 275.9295911 -121.553893 279.83974423 -121.54511642 283.75016975 C-121.54434627 285.18284081 -121.548686 286.61552533 -121.55857468 288.04816246 C-121.57130303 290.0073074 -121.56362244 291.96655294 -121.55499268 293.92572021 C-121.55645924 295.0207272 -121.5579258 296.11573418 -121.5594368 297.24392319 C-121.12420307 300.83471637 -120.0442746 303.22319865 -118.1875 306.3125 C-115.59778119 308.39339471 -115.59778119 308.39339471 -112.3125 310.125 C-110.97624539 310.88746536 -109.64034148 311.65054548 -108.3046875 312.4140625 C-107.13244629 313.07390137 -107.13244629 313.07390137 -105.93652344 313.74707031 C-102.64919019 315.61904019 -99.3899849 317.53719509 -96.1328125 319.4609375 C-94.85663331 320.21382858 -93.58042859 320.9666764 -92.30419922 321.71948242 C-91.66415955 322.09704681 -91.02411987 322.47461121 -90.36468506 322.86361694 C-87.27137797 324.68761498 -84.17638629 326.50864771 -81.078125 328.32421875 C-80.01625977 328.94772217 -78.95439453 329.57122559 -77.86035156 330.21362305 C-74.75503226 332.0105527 -71.60905148 333.72846416 -68.45794678 335.44367981 C-67.47015102 335.98161572 -66.48235527 336.51955164 -65.46462631 337.07378864 C-64.71317463 337.48256339 -63.96172295 337.89133814 -63.1875 338.3125 C-63.18603344 337.34066521 -63.18456688 336.36883041 -63.18305588 335.36754608 C-63.1464515 311.71435308 -63.08698953 288.06130158 -63.00359726 264.40822601 C-62.96379775 252.96973945 -62.93140985 241.53132177 -62.91650391 230.09277344 C-62.90349217 220.12225982 -62.87653958 210.15189772 -62.83288693 200.18146944 C-62.81026153 194.90279017 -62.79458998 189.62429786 -62.79561615 184.3455658 C-62.79636211 179.37474895 -62.77843664 174.40434558 -62.74633217 169.43363571 C-62.73782938 167.61160035 -62.73608582 165.78951864 -62.74169731 163.96747208 C-62.74835314 161.4737246 -62.73037997 158.9812866 -62.70648193 156.4876709 C-62.71424235 155.77169345 -62.72200277 155.05571601 -62.72999835 154.31804228 C-62.62713179 148.22765689 -60.62931939 142.96677468 -56.50390625 138.48242188 C-50.84885041 134.60952729 -44.97064223 131.1733464 -38.99163818 127.82345581 C-35.8657288 126.07184039 -32.75029685 124.30170745 -29.6328125 122.53515625 C-29.00174591 122.17829239 -28.37067932 121.82142853 -27.7204895 121.45375061 C-21.80365172 118.10505738 -15.9285335 114.68685992 -10.0625 111.25 C-1.82763021 106.4318416 6.42171565 101.63994524 14.6875 96.875 C15.76136963 96.25592773 16.83523926 95.63685547 17.94165039 94.99902344 C22.36600496 92.44927204 26.79102587 89.90067919 31.21630859 87.35253906 C36.74999615 84.1658302 42.28182719 80.97604288 47.80859375 77.77734375 C51.6020921 75.58244337 55.40570353 73.40773278 59.22265625 71.25390625 C60.79432477 70.35686532 62.36594333 69.45973686 63.9375 68.5625 C64.64849854 68.16828857 65.35949707 67.77407715 66.09204102 67.36791992 C68.19924328 66.1920578 68.19924328 66.1920578 70.8125 64.3125 C70.8125 63.3225 70.8125 62.3325 70.8125 61.3125 C41.93513332 38.66260022 -0.53841663 33.21963909 -35.1875 43.3125 Z M93.8125 94.3125 C92.94447754 94.81281738 92.07645508 95.31313477 91.18212891 95.82861328 C86.2178745 98.70073314 81.26843359 101.5974523 76.32421875 104.50390625 C69.51921617 108.49704408 62.66887106 112.40862985 55.8125 116.3125 C46.14749042 121.81846571 36.5196092 127.38406651 26.92138672 133.00585938 C17.79540095 138.34240848 8.6167886 143.58507675 -0.57421875 148.80859375 C-3.78323108 150.63537725 -6.9870424 152.4707756 -10.1875 154.3125 C-11.62270996 155.13427734 -11.62270996 155.13427734 -13.08691406 155.97265625 C-13.96831055 156.48699219 -14.84970703 157.00132812 -15.7578125 157.53125 C-16.9027417 158.19543945 -16.9027417 158.19543945 -18.07080078 158.87304688 C-21.57602374 161.2567602 -23.83428555 163.25285666 -25.1875 167.3125 C-25.27661173 169.35216481 -25.30510045 171.39467286 -25.30102539 173.4362793 C-25.30094986 174.69736008 -25.30087433 175.95844086 -25.30079651 177.25773621 C-25.29568989 178.63406412 -25.29047389 180.01039163 -25.28515625 181.38671875 C-25.28329086 182.79490611 -25.28186753 184.20309411 -25.28086853 185.61128235 C-25.27705288 189.3151733 -25.26723072 193.01902495 -25.25616455 196.72290039 C-25.24592997 200.50341256 -25.24136652 204.28393109 -25.23632812 208.06445312 C-25.2256076 215.48048665 -25.2085426 222.89648782 -25.1875 230.3125 C-24.31609375 229.81258545 -23.4446875 229.3126709 -22.546875 228.79760742 C-15.78260398 224.92181545 -9.00154622 221.08038452 -2.18725586 217.29296875 C9.66785042 210.7011167 21.37711708 203.89517489 33.03369141 196.95996094 C47.31646578 188.49219065 61.70917322 180.20950217 76.09619141 171.9206543 C89.60043431 164.13641277 103.05487464 156.26700557 116.5078125 148.39453125 C117.60464355 147.75330322 118.70147461 147.1120752 119.83154297 146.45141602 C121.93797936 145.21992906 124.04380389 143.98739475 126.14892578 142.75366211 C127.09493652 142.20073486 128.04094727 141.64780762 129.015625 141.078125 C129.84739258 140.59118164 130.67916016 140.10423828 131.53613281 139.60253906 C138.43221167 135.6944652 143.89226188 134.50136765 151.6796875 136.59423828 C155.34969942 137.83017865 158.59778471 139.68679277 161.9375 141.625 C162.70755371 142.06231445 163.47760742 142.49962891 164.27099609 142.95019531 C172.25653632 147.50926495 180.16195289 152.20849352 188.06640625 156.90625 C193.81821828 160.32227594 199.5937073 163.69666906 205.375 167.0625 C213.64898223 171.88196139 221.91655731 176.71216969 230.17645264 181.5557251 C231.99462043 182.62184558 233.81297083 183.68765406 235.63134766 184.75341797 C241.37764449 188.12193349 247.12211986 191.49349132 252.86222839 194.87254333 C255.51829228 196.43583533 258.17519807 197.9976932 260.83218384 199.55941772 C262.09691114 200.30334537 263.36122352 201.04797893 264.62509155 201.79336548 C266.38314098 202.83015933 268.14259342 203.86453399 269.90234375 204.8984375 C270.90128662 205.4867334 271.90022949 206.0750293 272.92944336 206.68115234 C275.84458359 208.33065416 278.80408988 209.84110127 281.8125 211.3125 C282.93590428 173.06490498 274.5439048 141.20744976 248.10546875 112.67578125 C225.05154929 88.91492729 194.4171733 76.76010659 161.48388672 76.02905273 C136.61637052 75.78692915 115.28095248 81.93275347 93.8125 94.3125 Z M-198.30859375 195.33984375 C-221.95546955 219.17903572 -232.46734535 249.92729276 -232.50439453 282.98339844 C-232.39776852 293.55911871 -231.21749004 303.19395855 -228.1875 313.3125 C-227.97851074 314.02760742 -227.76952148 314.74271484 -227.55419922 315.47949219 C-216.43173486 352.48772191 -191.47340721 375.97466961 -158.66308594 394.35693359 C-153.14424443 397.46215419 -147.6675195 400.63944154 -142.1875 403.8125 C-140.02105035 405.06287608 -137.8543832 406.3128754 -135.6875 407.5625 C-96.6875 430.0625 -96.6875 430.0625 -93.43310547 431.94116211 C-91.28238806 433.18121393 -89.13038326 434.4190358 -86.97705078 435.65454102 C-81.90987831 438.56549441 -76.85851392 441.49683828 -71.85150146 444.50997925 C-69.49510303 445.92614757 -67.13118935 447.329493 -64.76660156 448.73193359 C-63.10776642 449.72295688 -61.45994167 450.73233744 -59.8125 451.7421875 C-53.04255445 455.97198247 -53.04255445 455.97198247 -45.35595703 456.98168945 C-39.88264092 455.29261498 -35.06094083 452.12858066 -30.1875 449.1875 C-28.95897097 448.46320757 -27.72946458 447.74057057 -26.49902344 447.01953125 C-23.975089 445.53719709 -21.45702373 444.04557972 -18.94335938 442.54589844 C-15.31504338 440.3834146 -11.66880039 438.25297034 -8.015625 436.1328125 C-2.3988787 432.87187051 3.20983593 429.59757121 8.8125 426.3125 C7.36666201 421.97498604 4.09407201 421.01887328 0.25 419 C-1.4088998 418.10405341 -3.06638118 417.20547701 -4.72265625 416.3046875 C-5.61098145 415.82225586 -6.49930664 415.33982422 -7.41455078 414.84277344 C-12.22228142 412.18959016 -16.95231918 409.40497928 -21.6875 406.625 C-30.16942097 401.65564971 -38.66817675 396.71746857 -47.1875 391.8125 C-56.5262491 386.43356363 -65.84390447 381.01990477 -75.1484375 375.58203125 C-82.48033774 371.30027849 -89.8302156 367.05046632 -97.1875 362.8125 C-106.72269374 357.31895809 -116.25168027 351.81499201 -125.74169922 346.24365234 C-130.22136267 343.61417031 -134.70783073 341.00932017 -139.25390625 338.49609375 C-155.06614798 329.67655607 -155.06614798 329.67655607 -158.1875 320.3125 C-158.29061377 318.29599787 -158.33391077 316.27625861 -158.34571838 314.25715637 C-158.3555072 312.99090927 -158.36529602 311.72466217 -158.37538147 310.42004395 C-158.38128566 309.01416053 -158.38709611 307.60827673 -158.39282227 306.20239258 C-158.40240094 304.72413357 -158.41241101 303.24587729 -158.42282104 301.7676239 C-158.44987736 297.75141823 -158.470883 293.73520079 -158.49082303 289.71895432 C-158.51267809 285.5228754 -158.54006913 281.32683275 -158.56687927 277.13078308 C-158.61681265 269.18355977 -158.66174909 261.23631633 -158.70490164 253.28905362 C-158.75426849 244.24197385 -158.80918867 235.19493049 -158.86458123 226.14788592 C-158.97841118 207.5361244 -159.08524803 188.92432854 -159.1875 170.3125 C-172.20482495 170.3125 -189.44034415 186.7701734 -198.30859375 195.33984375 Z M133.9375 182.4375 C132.78967041 183.09552612 132.78967041 183.09552612 131.61865234 183.7668457 C129.00855046 185.26857297 126.41056524 186.79005219 123.8125 188.3125 C121.78162681 189.49153471 119.75036253 190.66989597 117.71875 191.84765625 C112.72620749 194.74742378 107.74249476 197.66191097 102.76269531 200.58349609 C97.78404802 203.50130312 92.79814825 206.40667659 87.8125 209.3125 C90.88279723 211.85404263 93.89310562 214.06140034 97.3828125 215.984375 C98.70575317 216.72071167 98.70575317 216.72071167 100.05541992 217.47192383 C101.00650635 217.99681396 101.95759277 218.5217041 102.9375 219.0625 C111.70398639 223.95596013 120.37896075 228.97980074 129 234.125 C138.21646268 239.61975973 147.48245144 245.01295455 156.8125 250.3125 C166.03646273 255.55240221 175.19947281 260.880767 184.3125 266.3125 C193.52978288 271.80626704 202.79884377 277.19435319 212.125 282.5 C220.85017001 287.47093286 229.57391142 292.44375095 238.25 297.5 C239.14952393 298.01651123 240.04904785 298.53302246 240.97583008 299.06518555 C247.69349082 303.00415682 253.88050775 307.28267929 256.38073635 315.08598709 C256.92285393 317.88157163 256.95370311 320.52536321 256.97071838 323.37420654 C256.98540161 325.2377755 256.98540161 325.2377755 257.00038147 327.13899231 C257.00628524 328.51290855 257.01209571 329.8868252 257.01782227 331.26074219 C257.02740395 332.70959246 257.0374142 334.15843996 257.04782104 335.60728455 C257.07484473 339.53872269 257.09586802 343.47017281 257.11582303 347.40165234 C257.13769823 351.5109748 257.16507942 355.62026046 257.19187927 359.72955322 C257.24178541 367.51028789 257.28673196 375.291043 257.32990164 383.07181764 C257.37929177 391.93029092 257.43420332 400.78872727 257.48958123 409.64716482 C257.60336936 427.86890892 257.71021531 446.09068788 257.8125 464.3125 C269.82290735 462.04410499 281.01048099 453.42125169 289.8125 445.3125 C290.36147949 444.81121582 290.91045898 444.30993164 291.47607422 443.79345703 C308.77807082 427.82789051 320.52924192 408.01790989 326.8125 385.3125 C327.1321875 384.16523438 327.451875 383.01796875 327.78125 381.8359375 C335.18338408 349.82856141 328.20079926 315.71103718 310.96533203 288.09667969 C295.5460305 264.23300844 275.03189545 250.95811551 250.85546875 237.40478516 C243.90310701 233.50652894 237.001104 229.53111454 230.125 225.5 C220.84090973 220.06161122 211.51709307 214.69584041 202.16970825 209.36724854 C194.56927549 205.03445715 186.97883908 200.68540747 179.40478516 196.30664062 C176.15741351 194.42985432 172.90704028 192.5583568 169.65625 190.6875 C166.039123 188.60448523 162.43480937 186.50259982 158.84375 184.375 C157.41674273 183.54153642 155.98966583 182.70819204 154.5625 181.875 C153.94922852 181.50318604 153.33595703 181.13137207 152.70410156 180.74829102 C145.27987472 176.45543526 140.74475006 178.41405774 133.9375 182.4375 Z M42.26953125 234.6640625 C41.37363281 235.17839844 40.47773438 235.69273437 39.5546875 236.22265625 C38.58789062 236.78855469 37.62109375 237.35445312 36.625 237.9375 C34.53815016 239.13869819 32.45089666 240.33919531 30.36328125 241.5390625 C28.74220459 242.47540527 28.74220459 242.47540527 27.08837891 243.43066406 C21.855202 246.4368742 16.58332054 249.37296417 11.3125 252.3125 C2.80560521 257.07109233 -5.69604405 261.83890665 -14.1875 266.625 C-15.17943359 267.18251953 -16.17136719 267.74003906 -17.19335938 268.31445312 C-18.09892578 268.82556641 -19.00449219 269.33667969 -19.9375 269.86328125 C-21.13632813 270.53870972 -21.13632813 270.53870972 -22.359375 271.2277832 C-24.13968779 272.18225753 -24.13968779 272.18225753 -25.1875 273.3125 C-25.3252329 276.02418063 -25.39796943 278.71115452 -25.42797852 281.42480469 C-25.44097488 282.27523346 -25.45397125 283.12566223 -25.46736145 284.00186157 C-25.59415475 292.90433383 -25.6508378 301.80776509 -25.70239258 310.7109375 C-25.72915457 314.93868153 -25.77790239 319.16530071 -25.84594727 323.39257812 C-25.92780164 328.49021441 -25.97056195 333.58677791 -25.98545647 338.68503571 C-25.9977224 340.6292189 -26.02379721 342.57336564 -26.06390572 344.51717377 C-26.11727963 347.24026638 -26.120385 349.95911365 -26.11157227 352.68261719 C-26.15235901 353.88759354 -26.15235901 353.88759354 -26.19396973 355.11691284 C-26.1552132 357.44020262 -26.03812821 359.146813 -25.1875 361.3125 C-22.75897338 363.52086672 -20.13530047 364.90686418 -17.1875 366.3125 C-15.78262329 367.12750977 -15.78262329 367.12750977 -14.34936523 367.95898438 C-13.49028564 368.43658203 -12.63120605 368.91417969 -11.74609375 369.40625 C-10.76181396 369.95514893 -9.77753418 370.50404785 -8.76342773 371.06958008 C-7.20990601 371.93232544 -7.20990601 371.93232544 -5.625 372.8125 C-3.39560984 374.05558885 -1.16644834 375.29908786 1.0625 376.54296875 C2.1865625 377.16993652 3.310625 377.7969043 4.46875 378.44287109 C8.64307352 380.776908 12.80844181 383.12646586 16.97070312 385.48193359 C18.89257433 386.56920606 20.81573464 387.65420331 22.74023438 388.73681641 C27.05349162 391.16585333 31.34660529 393.61703583 35.59375 396.16015625 C36.32327881 396.59030029 37.05280762 397.02044434 37.80444336 397.46362305 C39.13385232 398.24941801 40.45579976 399.04805582 41.76782227 399.86254883 C45.96235921 402.32109563 48.15736078 402.45009378 52.8125 401.3125 C55.63130328 400.06646295 55.63130328 400.06646295 58.42578125 398.42578125 C59.49650879 397.82403076 60.56723633 397.22228027 61.67041016 396.60229492 C62.8104248 395.9497876 63.95043945 395.29728027 65.125 394.625 C66.32552523 393.94616501 67.52654239 393.26819936 68.72802734 392.59106445 C71.20437341 391.19410856 73.67804649 389.79258006 76.14990234 388.38769531 C79.60689487 386.42533797 83.07682734 384.48688517 86.55078125 382.5546875 C96.02055132 377.28710554 105.46836957 371.98809381 114.8125 366.5 C115.51906738 366.08516357 116.22563477 365.67032715 116.95361328 365.24291992 C120.05986064 363.51753151 120.05986064 363.51753151 122.8125 361.3125 C122.99809832 358.62815551 123.11847932 355.96780106 123.19580078 353.27954102 C123.22325378 352.43714371 123.25070679 351.5947464 123.2789917 350.7268219 C123.51935663 342.92855139 123.6624369 335.12822338 123.77543831 327.32716465 C123.85283315 322.08537704 123.96242242 316.84872118 124.14990234 311.60961914 C124.33033661 306.54396181 124.4262421 301.48300939 124.46435165 296.41435051 C124.49312159 294.48771273 124.55142425 292.56127017 124.64047623 290.63647652 C125.11335874 281.76232617 125.11335874 281.76232617 122.8125 273.3125 C118.73428688 268.92038959 113.36383656 266.52223462 107.91851425 264.2286005 C104.84383357 262.89113732 102.02049688 261.23525713 99.125 259.546875 C97.02196357 258.38337141 94.91778501 257.22192997 92.8125 256.0625 C91.08779206 255.1082256 89.36308872 254.15394277 87.63867188 253.19914246 C86.46562522 252.5496657 85.2924487 251.90042345 84.11914062 251.25141907 C77.67361216 247.68544252 71.24151153 244.09566503 64.8125 240.5 C63.7503125 239.90735352 62.688125 239.31470703 61.59375 238.70410156 C60.12421875 237.88184082 60.12421875 237.88184082 58.625 237.04296875 C57.76519531 236.56239014 56.90539062 236.08181152 56.01953125 235.58666992 C54.24390328 234.56155904 52.51844804 233.44979869 50.8125 232.3125 C46.69493055 232.3125 45.67343218 232.68507475 42.26953125 234.6640625 Z M160.8125 297.3125 C160.81195523 298.28433479 160.81141047 299.25616959 160.81084919 300.25745392 C160.79645007 323.91065737 160.75341806 347.56367686 160.68040943 371.21677399 C160.64576489 382.65527984 160.6204046 394.09366526 160.61694336 405.53222656 C160.61390274 415.50276036 160.59339888 425.47307962 160.55197543 435.44353056 C160.53065284 440.72225228 160.51804112 446.00066904 160.52634621 451.2794342 C160.53389088 456.25032117 160.51804627 461.22059047 160.48443985 466.19136429 C160.47621166 468.01340032 160.47645065 469.83549783 160.48590279 471.65752792 C160.56561868 488.71582971 160.56561868 488.71582971 154.8125 495.3125 C151.64920616 498.24870953 148.22260394 500.36130001 144.48046875 502.4921875 C143.44728516 503.08386719 142.41410156 503.67554688 141.34960938 504.28515625 C140.24423828 504.91292969 139.13886719 505.54070312 138 506.1875 C136.23766904 507.19490021 134.47625468 508.20389058 132.71487427 509.21295166 C131.51240929 509.90170243 130.30966861 510.58997206 129.10665894 511.277771 C123.32104024 514.58700486 117.56490726 517.94590594 111.8125 521.3125 C96.9682961 529.98742975 82.06769123 538.56439662 67.1640625 547.13671875 C53.32428401 555.10223485 39.53849833 563.15239191 25.8125 571.3125 C29.54175904 575.3697627 33.31150827 578.0947874 38.125 580.75 C38.8250415 581.13760498 39.52508301 581.52520996 40.24633789 581.92456055 C55.22873291 590.00128272 72.72323686 595.68248108 89.8125 596.3125 C90.86824219 596.3640625 91.92398438 596.415625 93.01171875 596.46875 C127.23269635 597.35664563 159.53544431 585.28019014 184.8125 562.3125 C187.34029751 559.77954372 189.59923466 557.12260094 191.8125 554.3125 C192.52019531 553.42949219 193.22789062 552.54648437 193.95703125 551.63671875 C216.25811351 522.95304395 219.45749748 493.38760417 219.34980202 458.14062428 C219.33954639 453.72544874 219.34909953 449.31030349 219.35534668 444.89512634 C219.3625756 437.50302037 219.35314958 430.11107554 219.33398438 422.71899414 C219.31210341 414.18094695 219.31936685 405.64328025 219.34129 397.10524184 C219.35943632 389.74173098 219.36200974 382.37833457 219.35153532 375.0148086 C219.34531165 370.63020635 219.34443613 366.24578332 219.35768127 361.8611927 C219.36923228 357.75274675 219.3612284 353.64479436 219.33810425 349.53640175 C219.33281829 348.03075225 219.33432906 346.52506116 219.34315491 345.01942825 C219.35409649 342.96352829 219.34036857 340.90920822 219.32043457 338.85340881 C219.31892647 337.70409913 219.31741837 336.55478945 219.31586456 335.3706522 C218.70189741 331.64054261 217.41162788 330.007052 214.8125 327.3125 C212.38781672 325.54741369 212.38781672 325.54741369 209.6484375 324.0703125 C208.62041016 323.48580322 207.59238281 322.90129395 206.53320312 322.29907227 C205.42912109 321.68475342 204.32503906 321.07043457 203.1875 320.4375 C201.44913846 319.45443932 199.7107878 318.47135881 197.9730835 317.48713684 C196.76964242 316.80637943 195.56540709 316.12702434 194.3604126 315.44902039 C190.01249903 313.00184807 185.69170466 310.51126451 181.3828125 307.99609375 C180.18571617 307.29865414 178.98861341 306.60122559 177.79150391 305.90380859 C175.49782877 304.56711684 173.20624791 303.22702282 170.91552734 301.88525391 C169.88121582 301.28503418 168.8469043 300.68481445 167.78125 300.06640625 C166.86794922 299.53345947 165.95464844 299.0005127 165.01367188 298.45141602 C162.92950889 297.15931883 162.92950889 297.15931883 160.8125 297.3125 Z M115.84375 408.06640625 C114.29494141 408.96552734 114.29494141 408.96552734 112.71484375 409.8828125 C111.59207031 410.54023438 110.46929687 411.19765625 109.3125 411.875 C108.13698406 412.55904988 106.96119853 413.24263667 105.78515625 413.92578125 C103.33879074 415.34732132 100.89360537 416.77086082 98.44921875 418.19580078 C92.91445007 421.42007154 87.36268668 424.6148703 81.8125 427.8125 C79.6457519 429.06235884 77.47908552 430.31235936 75.3125 431.5625 C53.64583333 444.0625 31.97916667 456.5625 10.3125 469.0625 C8.70145386 469.9920752 8.70145386 469.9920752 7.05786133 470.94042969 C4.90694988 472.18117211 2.7557488 473.42141257 0.60424805 474.66113281 C-4.45239684 477.57563881 -9.50603989 480.49499266 -14.54928589 483.43261719 C-16.91946946 484.81279809 -19.29133423 486.19007527 -21.66333008 487.56713867 C-23.32732684 488.53477735 -24.98889645 489.50658612 -26.65039062 490.47851562 C-40.888357 498.73960582 -40.888357 498.73960582 -47.0625 498.75 C-47.82304687 498.76933594 -48.58359375 498.78867187 -49.3671875 498.80859375 C-58.31401475 497.23484436 -66.38710785 491.48294657 -74.125 487 C-75.36208798 486.28754676 -76.59939686 485.57547695 -77.83691406 484.86376953 C-80.3789096 483.40080358 -82.91936565 481.93521804 -85.45849609 480.46728516 C-88.95514621 478.44586027 -92.45565389 476.43119632 -95.95703125 474.41796875 C-107.3731858 467.84938376 -118.7628725 461.23646407 -130.1340332 454.59033203 C-137.61551015 450.22064165 -145.11695395 445.88635441 -152.625 441.5625 C-162.51242857 435.86815787 -172.36875381 430.12443194 -182.1875 424.3125 C-189.0368919 436.14606287 -184.14212368 457.43552294 -180.82910156 470.04443359 C-175.91885134 487.4022055 -167.68048377 502.47664474 -156.1875 516.3125 C-155.18396484 517.54613281 -155.18396484 517.54613281 -154.16015625 518.8046875 C-135.19713103 541.21906087 -104.28811567 555.81454784 -75.1875 558.3125 C-58.52660415 559.2561348 -42.290937 558.93444319 -26.1875 554.3125 C-25.53168945 554.13009766 -24.87587891 553.94769531 -24.20019531 553.75976562 C-10.18635628 549.67806494 2.29702629 541.60510068 14.8125 534.3125 C15.80846191 533.7340332 16.80442383 533.15556641 17.83056641 532.55957031 C21.75089297 530.28123466 25.66843263 527.99828999 29.58007812 525.70507812 C37.29225439 521.18414721 45.04497588 516.73727407 52.8125 512.3125 C62.51912578 506.78140472 72.19725142 501.20458982 81.83325195 495.55102539 C87.17100786 492.42245888 92.52705863 489.33084722 97.91015625 486.28125 C99.69415159 485.26663103 101.47782208 484.25144319 103.26141357 483.2361145 C104.95436781 482.27588227 106.65217351 481.32421935 108.35009766 480.37280273 C117.41856542 475.57221373 117.41856542 475.57221373 122.8125 467.3125 C122.9015016 465.30345356 122.93010452 463.29153032 122.92602539 461.28051758 C122.92591209 459.41892754 122.92591209 459.41892754 122.92579651 457.51972961 C122.92068991 456.16549642 122.91547391 454.81126363 122.91015625 453.45703125 C122.90829083 452.07126415 122.90686751 450.68549639 122.90586853 449.29972839 C122.9020531 445.6550209 122.89223113 442.01035335 122.88116455 438.36566162 C122.8709295 434.64547262 122.86636642 430.92527715 122.86132812 427.20507812 C122.85060798 419.90753389 122.83354325 412.61002254 122.8125 405.3125 C119.93590442 405.3125 118.32491452 406.61854957 115.84375 408.06640625 Z " fill="#FFFFFF" transform="translate(271.1875,-0.3125)"/>
</svg>
